<?xml version="1.0" standalone="no"?><svg xmlns="http://www.w3.org/2000/svg" viewBox="0 0 1440 320"><path fill="#b12741" fill-opacity="1" d="M0,192L12.6,181.3C25.3,171,51,149,76,160C101.1,171,126,213,152,192C176.8,171,202,85,227,74.7C252.6,64,278,128,303,176C328.4,224,354,256,379,261.3C404.2,267,429,245,455,250.7C480,256,505,288,531,277.3C555.8,267,581,213,606,202.7C631.6,192,657,224,682,234.7C707.4,245,733,235,758,197.3C783.2,160,808,96,834,69.3C858.9,43,884,53,909,85.3C934.7,117,960,171,985,165.3C1010.5,160,1036,96,1061,85.3C1086.3,75,1112,117,1137,138.7C1162.1,160,1187,160,1213,133.3C1237.9,107,1263,53,1288,37.3C1313.7,21,1339,43,1364,90.7C1389.5,139,1415,213,1427,250.7L1440,288L1440,320L1427.4,320C1414.7,320,1389,320,1364,320C1338.9,320,1314,320,1288,320C1263.2,320,1238,320,1213,320C1187.4,320,1162,320,1137,320C1111.6,320,1086,320,1061,320C1035.8,320,1011,320,985,320C960,320,935,320,909,320C884.2,320,859,320,834,320C808.4,320,783,320,758,320C732.6,320,707,320,682,320C656.8,320,632,320,606,320C581.1,320,556,320,531,320C505.3,320,480,320,455,320C429.5,320,404,320,379,320C353.7,320,328,320,303,320C277.9,320,253,320,227,320C202.1,320,177,320,152,320C126.3,320,101,320,76,320C50.5,320,25,320,13,320L0,320Z"></path></svg>