<?xml version="1.0" standalone="no"?><svg xmlns="http://www.w3.org/2000/svg" viewBox="0 0 1440 320"><path fill="#f9bfbf" fill-opacity="1" d="M0,320L12.6,314.7C25.3,309,51,299,76,250.7C101.1,203,126,117,152,85.3C176.8,53,202,75,227,117.3C252.6,160,278,224,303,213.3C328.4,203,354,117,379,122.7C404.2,128,429,224,455,266.7C480,309,505,299,531,298.7C555.8,299,581,309,606,293.3C631.6,277,657,235,682,218.7C707.4,203,733,213,758,213.3C783.2,213,808,203,834,197.3C858.9,192,884,192,909,176C934.7,160,960,128,985,101.3C1010.5,75,1036,53,1061,90.7C1086.3,128,1112,224,1137,261.3C1162.1,299,1187,277,1213,240C1237.9,203,1263,149,1288,128C1313.7,107,1339,117,1364,138.7C1389.5,160,1415,192,1427,208L1440,224L1440,320L1427.4,320C1414.7,320,1389,320,1364,320C1338.9,320,1314,320,1288,320C1263.2,320,1238,320,1213,320C1187.4,320,1162,320,1137,320C1111.6,320,1086,320,1061,320C1035.8,320,1011,320,985,320C960,320,935,320,909,320C884.2,320,859,320,834,320C808.4,320,783,320,758,320C732.6,320,707,320,682,320C656.8,320,632,320,606,320C581.1,320,556,320,531,320C505.3,320,480,320,455,320C429.5,320,404,320,379,320C353.7,320,328,320,303,320C277.9,320,253,320,227,320C202.1,320,177,320,152,320C126.3,320,101,320,76,320C50.5,320,25,320,13,320L0,320Z"></path></svg>