<?xml version="1.0" standalone="no"?>
<!DOCTYPE svg PUBLIC "-//W3C//DTD SVG 20010904//EN"
 "http://www.w3.org/TR/2001/REC-SVG-20010904/DTD/svg10.dtd">
<svg version="1.0" xmlns="http://www.w3.org/2000/svg"
 width="600.000000pt" height="600.000000pt" viewBox="0 0 600.000000 600.000000"
 preserveAspectRatio="xMidYMid meet">
<metadata>
Created by potrace 1.16, written by Peter Selinger 2001-2019
</metadata>
<g transform="translate(0.000000,600.000000) scale(0.035587,-0.035545)"
fill="#000000" stroke="none">
<path d="M7940 16828 c-85 -4 -198 -12 -250 -17 -186 -18 -295 -31 -310 -37
-8 -4 -49 -10 -90 -15 -190 -19 -324 -41 -465 -73 -38 -9 -95 -21 -125 -27
-30 -6 -100 -21 -155 -34 -55 -12 -136 -31 -180 -40 -44 -9 -118 -28 -165 -42
-47 -13 -98 -28 -115 -33 -60 -17 -303 -92 -425 -132 -127 -42 -215 -77 -414
-167 -37 -17 -72 -31 -77 -31 -4 0 -45 -18 -91 -39 -46 -22 -94 -42 -108 -46
-14 -4 -56 -24 -94 -44 -38 -20 -78 -40 -90 -46 -11 -5 -71 -35 -132 -66 -61
-31 -119 -61 -130 -66 -10 -6 -30 -16 -44 -23 -14 -7 -77 -40 -141 -72 -63
-31 -124 -67 -134 -78 -10 -11 -22 -20 -27 -20 -12 0 -189 -100 -213 -120 -20
-17 -161 -107 -289 -185 -88 -53 -210 -146 -341 -258 -22 -19 -80 -65 -130
-102 -49 -37 -112 -87 -140 -111 -84 -75 -305 -270 -393 -346 -113 -99 -265
-250 -332 -332 -30 -36 -107 -125 -170 -196 -63 -71 -136 -155 -162 -187 -26
-32 -71 -85 -99 -118 -28 -33 -59 -71 -67 -85 -26 -40 -72 -99 -144 -185 -135
-161 -157 -191 -258 -360 -29 -49 -73 -120 -97 -157 -23 -36 -43 -68 -43 -71
0 -3 -31 -54 -68 -114 -38 -59 -85 -142 -106 -183 -21 -41 -44 -82 -51 -90 -7
-8 -15 -24 -19 -36 -3 -11 -19 -45 -35 -75 -73 -135 -99 -186 -106 -208 -4
-14 -23 -49 -42 -79 -19 -30 -46 -86 -59 -125 -13 -40 -37 -99 -53 -132 -60
-122 -141 -315 -166 -391 -7 -23 -24 -63 -38 -90 -14 -27 -37 -94 -52 -149
-15 -55 -35 -120 -45 -145 -16 -42 -67 -211 -92 -305 -5 -22 -21 -68 -34 -103
-13 -34 -24 -78 -24 -97 0 -19 -6 -54 -14 -77 -7 -24 -19 -72 -26 -108 -11
-63 -61 -290 -82 -380 -6 -25 -15 -72 -19 -105 -4 -33 -15 -112 -24 -175 -9
-63 -20 -144 -25 -180 -5 -36 -16 -117 -26 -180 -9 -63 -20 -196 -25 -295 -4
-99 -12 -273 -18 -387 -10 -200 -7 -327 18 -818 9 -158 26 -339 37 -375 3 -11
9 -49 14 -85 5 -36 16 -119 24 -185 25 -193 50 -328 90 -505 23 -101 50 -223
87 -395 15 -67 38 -148 61 -215 11 -30 24 -73 28 -95 5 -22 16 -58 25 -79 9
-21 28 -78 41 -125 63 -216 150 -440 284 -726 16 -33 36 -82 44 -110 9 -27 33
-79 52 -115 31 -56 54 -100 132 -255 78 -155 172 -333 207 -390 23 -38 61
-104 85 -145 24 -41 59 -92 77 -113 18 -20 33 -41 33 -46 0 -11 110 -198 143
-244 97 -132 137 -185 152 -197 10 -8 56 -64 102 -125 146 -193 228 -292 388
-469 66 -74 143 -162 170 -197 60 -76 228 -243 319 -319 37 -30 115 -99 174
-154 59 -54 118 -105 132 -114 14 -9 52 -41 85 -71 33 -31 95 -83 138 -116 43
-33 106 -84 140 -114 34 -29 78 -64 97 -77 19 -12 58 -41 85 -63 72 -58 179
-131 265 -181 41 -24 118 -71 170 -105 89 -58 155 -100 266 -169 26 -16 70
-39 98 -50 28 -12 78 -37 111 -57 81 -48 462 -239 555 -278 143 -60 195 -83
245 -106 87 -40 169 -73 199 -80 17 -3 41 -14 55 -24 27 -19 203 -81 230 -81
9 0 45 -11 81 -24 36 -13 88 -30 115 -39 28 -8 64 -20 80 -26 17 -6 57 -18 90
-27 33 -8 89 -26 125 -39 36 -13 81 -25 100 -28 31 -4 86 -15 300 -62 119 -26
205 -46 242 -56 21 -5 66 -14 100 -19 35 -5 104 -17 153 -25 50 -9 128 -20
175 -25 47 -5 132 -16 190 -25 231 -35 557 -53 960 -53 430 0 718 15 985 53
66 9 154 20 195 25 41 5 116 16 165 25 50 8 118 20 153 25 34 5 93 16 130 24
217 47 268 59 289 67 13 5 54 13 91 19 124 19 247 54 602 170 63 21 160 50
215 65 55 16 120 38 145 51 42 22 152 70 260 114 25 10 81 33 125 51 90 37
879 431 904 452 9 7 66 44 126 81 61 38 121 77 135 87 14 10 41 27 60 37 136
71 274 166 383 261 34 29 73 61 87 69 14 9 41 30 61 47 20 16 71 57 114 90 43
33 101 80 129 105 28 25 67 57 86 72 19 14 79 66 132 114 54 49 128 114 164
144 90 74 316 300 384 384 30 37 114 132 185 210 72 78 151 171 177 206 56 76
111 144 208 255 38 44 84 103 101 130 17 28 48 68 68 90 21 22 57 74 80 115
24 41 66 111 94 155 94 148 133 210 170 266 20 31 57 96 82 144 25 49 50 94
54 100 22 27 315 622 349 710 37 94 49 122 108 253 13 29 24 55 24 58 0 3 20
51 44 107 25 56 49 120 55 142 5 22 17 60 25 85 9 25 28 86 42 135 15 50 35
106 44 125 9 19 20 56 23 83 4 26 15 64 25 85 22 43 68 241 117 497 19 100 69
298 86 343 5 13 9 53 9 90 1 71 13 168 30 242 6 25 15 97 21 160 5 63 12 122
16 130 12 28 23 204 33 527 10 326 1 875 -19 1068 -15 148 -56 448 -66 480 -3
11 -9 70 -14 130 -5 61 -14 126 -19 145 -25 86 -71 280 -77 325 -4 28 -13 73
-21 101 -7 28 -18 82 -23 120 -11 72 -32 146 -131 454 -33 102 -71 225 -85
273 -14 49 -34 109 -45 134 -11 25 -20 51 -20 57 0 6 -7 25 -16 41 -15 28
-161 364 -225 518 -16 38 -37 81 -47 95 -10 15 -35 63 -56 107 -21 44 -44 91
-52 105 -9 14 -18 34 -21 45 -4 11 -19 42 -35 70 -15 27 -49 93 -76 145 -51
102 -161 290 -215 367 -33 48 -116 182 -193 313 -22 38 -56 87 -75 109 -19 22
-61 75 -94 117 -33 42 -78 98 -100 124 -22 26 -62 78 -90 115 -27 37 -66 86
-85 109 -20 22 -47 57 -62 76 -14 19 -77 90 -139 156 -63 67 -141 155 -174
195 -72 89 -280 296 -396 396 -46 40 -135 119 -198 175 -62 57 -138 121 -168
143 -31 22 -91 69 -134 105 -43 36 -97 79 -119 95 -23 17 -68 53 -102 80 -144
118 -218 170 -316 224 -14 8 -63 40 -108 73 -46 32 -86 58 -90 58 -11 0 -133
73 -222 132 -74 49 -302 168 -323 168 -6 0 -23 8 -37 19 -38 26 -293 156 -377
192 -38 16 -83 36 -100 44 -193 89 -273 125 -280 125 -5 0 -27 8 -49 18 -96
43 -164 68 -376 138 -124 40 -247 80 -275 88 -27 9 -99 31 -160 49 -60 19
-148 42 -195 51 -47 10 -138 30 -202 47 -65 16 -129 29 -143 29 -29 0 -108 18
-145 32 -14 6 -52 14 -85 19 -33 4 -112 15 -175 24 -501 72 -585 81 -855 94
-225 11 -747 10 -965 -1z m1070 -2392 c881 -91 1717 -363 2455 -799 446 -263
820 -550 1178 -905 272 -269 507 -547 732 -865 51 -74 50 -87 -7 -87 -29 0
-1400 -151 -1588 -175 -63 -8 -506 -57 -985 -110 -927 -101 -1604 -176 -1800
-200 -66 -8 -532 -59 -1035 -114 -503 -55 -1075 -119 -1270 -141 -195 -22
-661 -74 -1035 -115 -664 -74 -1498 -167 -2375 -266 -239 -27 -441 -49 -447
-49 -16 0 11 72 102 275 312 697 729 1304 1255 1824 760 753 1640 1261 2680
1546 372 101 740 164 1150 195 179 13 809 4 990 -14z m4500 -3705 l0 -388 -37
-6 c-21 -3 -150 -17 -288 -32 -137 -14 -260 -28 -272 -31 l-23 -4 0 -1770 0
-1769 -32 -6 c-29 -4 -397 -45 -412 -45 -3 0 -6 794 -6 1765 0 1446 -2 1767
-13 1771 -7 2 -137 -9 -287 -26 -151 -16 -285 -30 -297 -30 l-23 0 2 388 3
387 200 23 c675 78 1415 160 1448 161 l37 1 0 -389z m-3000 -336 c0 -217 -1
-395 -3 -395 -13 0 -750 -81 -779 -86 l-38 -6 0 -489 c0 -291 4 -489 9 -489 5
0 129 14 276 30 147 17 280 30 296 30 l29 0 -2 -392 -3 -393 -285 -32 c-157
-17 -293 -32 -302 -32 -17 -1 -18 -31 -18 -491 l0 -490 23 1 c12 0 194 19 405
42 211 24 385 41 387 38 3 -2 5 -177 5 -388 0 -298 -3 -385 -12 -388 -10 -3
-1044 -119 -1235 -138 l-33 -3 0 2161 0 2162 153 18 c422 49 1075 123 1100
124 l27 1 0 -395z m-2712 -298 l2 -387 -22 -9 c-13 -4 -180 -24 -373 -45 -192
-20 -369 -39 -392 -43 l-43 -5 0 -489 0 -489 28 1 c15 0 198 19 407 43 209 24
383 41 388 39 4 -2 7 -177 7 -387 0 -295 -3 -386 -12 -393 -7 -6 -194 -29
-415 -53 l-403 -43 0 -884 c0 -485 -4 -883 -8 -883 -12 0 -363 -39 -404 -45
l-38 -5 0 2163 0 2163 418 48 c229 26 507 58 617 71 110 12 209 22 220 22 20
-2 20 -10 23 -390z m-2718 -302 c0 -369 -1 -395 -17 -395 -10 0 -99 -9 -197
-20 -99 -11 -184 -20 -191 -20 -12 0 -12 -1 -151 -745 -81 -435 -95 -526 -87
-555 25 -86 213 -714 298 -995 52 -170 142 -472 200 -670 59 -198 115 -382
126 -410 15 -41 27 -125 17 -125 -2 0 -102 -11 -223 -25 -121 -14 -223 -25
-226 -25 -4 0 -9 17 -13 38 -3 20 -44 165 -92 322 -47 157 -133 445 -191 640
-57 195 -109 359 -113 364 -6 6 -80 2 -187 -10 l-178 -19 -5 -710 -5 -710
-190 -22 c-104 -12 -207 -22 -227 -22 l-38 -1 0 2160 c0 2050 1 2160 18 2160
9 0 109 11 222 24 113 13 208 22 213 19 4 -2 7 -479 7 -1060 l0 -1056 77 7
c43 4 79 9 81 11 2 2 32 154 67 337 35 183 75 392 90 463 14 72 77 407 141
745 63 338 117 617 120 620 4 4 496 64 642 79 9 1 12 -84 12 -394z m8949
-3532 c-78 -210 -291 -647 -424 -868 -284 -472 -586 -860 -944 -1213 -593
-585 -1243 -1010 -2028 -1328 -301 -121 -827 -270 -1163 -328 -393 -69 -692
-90 -1149 -83 -421 6 -692 33 -1041 104 -1076 216 -2052 701 -2860 1422 -347
309 -706 720 -961 1098 l-49 72 33 5 c17 3 235 28 482 56 248 27 671 74 940
105 270 30 877 97 1350 149 473 53 1101 122 1395 155 294 33 902 101 1350 151
448 49 1076 119 1395 155 319 35 929 103 1355 150 426 47 1108 124 1515 170
407 46 759 84 782 84 l43 1 -21 -57z"/>
</g>
</svg>
